<?xml version="1.0" encoding="UTF-8" standalone="no"?>
<svg
   xmlns:dc="http://purl.org/dc/elements/1.1/"
   xmlns:cc="http://creativecommons.org/ns#"
   xmlns:rdf="http://www.w3.org/1999/02/22-rdf-syntax-ns#"
   xmlns:svg="http://www.w3.org/2000/svg"
   xmlns="http://www.w3.org/2000/svg"
   version="1.1"
   id="svg2"
   viewBox="0 0 337.85714 337.85714"
   height="95.350792mm"
   width="95.350792mm">
  <defs
     id="defs4" />
  <metadata
     id="metadata7">
    <rdf:RDF>
      <cc:Work
         rdf:about="">
        <dc:format>image/svg+xml</dc:format>
        <dc:type
           rdf:resource="http://purl.org/dc/dcmitype/StillImage" />
        <dc:title></dc:title>
      </cc:Work>
    </rdf:RDF>
  </metadata>
  <g
     transform="translate(-254.28572,-156.6479)"
     id="layer1">
    <path
       id="path4136"
       transform="translate(254.28572,156.6479)"
       d="M 168.92773 0 A 168.92857 168.92857 0 0 0 0 168.92773 A 168.92857 168.92857 0 0 0 168.92773 337.85742 A 168.92857 168.92857 0 0 0 337.85742 168.92773 A 168.92857 168.92857 0 0 0 168.92773 0 z M 128.92773 60 L 208.92773 60 L 208.92773 140 L 258.92773 140 L 168.92773 240 L 78.927734 140 L 128.92773 140 L 128.92773 60 z M 68.927734 252.14258 L 268.92773 252.14258 L 268.92773 272.14258 L 68.927734 272.14258 L 68.927734 252.14258 z "
       style="color:#000000;display:inline;overflow:visible;visibility:visible;opacity:1;fill:#959595;fill-opacity:1;fill-rule:nonzero;stroke:none;stroke-width:50;stroke-linecap:round;stroke-linejoin:round;stroke-miterlimit:4;stroke-dasharray:none;stroke-dashoffset:0;stroke-opacity:1;marker:none;enable-background:accumulate" />
  </g>
</svg>
